<svg width="48" height="48" viewBox="0 0 48 48" fill="none" xmlns="http://www.w3.org/2000/svg">
<circle cx="24" cy="24" r="24" fill="black"/>
<path d="M24 41.28C18 41.28 12.696 38.208 9.6 33.6C9.672 28.8 19.2 26.16 24 26.16C28.8 26.16 38.328 28.8 38.4 33.6C36.8133 35.9626 34.6701 37.8988 32.1589 39.238C29.6478 40.5773 26.8459 41.2785 24 41.28ZM24 7.2C25.9096 7.2 27.7409 7.95857 29.0912 9.30883C30.4414 10.6591 31.2 12.4904 31.2 14.4C31.2 16.3096 30.4414 18.1409 29.0912 19.4912C27.7409 20.8414 25.9096 21.6 24 21.6C22.0904 21.6 20.2591 20.8414 18.9088 19.4912C17.5586 18.1409 16.8 16.3096 16.8 14.4C16.8 12.4904 17.5586 10.6591 18.9088 9.30883C20.2591 7.95857 22.0904 7.2 24 7.2ZM24 0C20.8483 0 17.7274 0.620779 14.8156 1.82689C11.9038 3.033 9.25804 4.80083 7.02944 7.02944C2.52856 11.5303 0 17.6348 0 24C0 30.3652 2.52856 36.4697 7.02944 40.9706C9.25804 43.1992 11.9038 44.967 14.8156 46.1731C17.7274 47.3792 20.8483 48 24 48C30.3652 48 36.4697 45.4714 40.9706 40.9706C45.4714 36.4697 48 30.3652 48 24C48 10.728 37.2 0 24 0Z" fill="#EEEEEE"/>
</svg>
